<svg width="69" height="64" viewBox="0 0 69 64" fill="none" xmlns="http://www.w3.org/2000/svg">
<path d="M21.4541 50.4072C25.1958 50.4073 28.2285 53.4496 28.2285 57.2031C28.2285 60.9567 25.1958 64 21.4541 64C17.7124 64 14.6787 60.9567 14.6787 57.2031C14.6788 53.4496 17.7124 50.4072 21.4541 50.4072ZM52.5059 50.4072C56.2475 50.4073 59.2802 53.4496 59.2803 57.2031C59.2803 60.9567 56.2476 64 52.5059 64C48.7641 64 45.7305 60.9567 45.7305 57.2031C45.7305 53.4496 48.7642 50.4072 52.5059 50.4072ZM21.4541 54.6855C20.0684 54.6855 18.9444 55.813 18.9443 57.2031C18.9443 58.5933 20.0683 59.7207 21.4541 59.7207C22.8398 59.7207 23.9629 58.5933 23.9629 57.2031C23.9628 55.8131 22.8398 54.6856 21.4541 54.6855ZM52.5059 54.6855C51.1201 54.6855 49.9962 55.813 49.9961 57.2031C49.9961 58.5933 51.1201 59.7207 52.5059 59.7207C53.8916 59.7207 55.0146 58.5933 55.0146 57.2031C55.0146 55.813 53.8916 54.6856 52.5059 54.6855ZM14.9375 0C23.7652 0.000244975 30.4266 8.03835 28.8145 16.7451L24.6865 39.0361C24.0418 42.5187 26.7062 45.7344 30.2373 45.7344H47.2119C49.9323 45.7343 52.2659 43.7876 52.7627 41.1045L57.6562 14.6768C57.9786 12.9355 56.6466 11.3271 54.8809 11.3271H50.6846C49.0148 11.3269 47.7097 9.88081 47.876 8.21387L48.4404 2.55078C48.5847 1.10315 49.7996 0 51.25 0H54.8809C63.7088 0 70.3701 8.03818 68.7578 16.7451L63.8643 43.1738C63.1868 46.8327 61.3701 50.034 58.8242 52.4385C57.3817 50.5167 55.0884 49.2744 52.5059 49.2744C48.1877 49.2744 44.6789 52.7478 44.6035 57.0615H30.2373C29.9415 57.0615 29.6471 57.0538 29.3555 57.0391C29.2682 52.7358 25.7646 49.2745 21.4541 49.2744C19.7983 49.2744 18.2612 49.785 16.9912 50.6582C14.0606 46.9698 12.6414 42.0646 13.585 36.9678L17.7129 14.6768C18.0352 12.9356 16.703 11.3274 14.9375 11.3271H8.46875C3.7915 11.3271 0 7.52409 0 2.83203V0H14.9375Z" fill="#1D61E6"/>
</svg>
