<svg width="512" height="512" viewBox="0 0 512 512" fill="none" xmlns="http://www.w3.org/2000/svg">
<rect width="512" height="512" fill="white"/>
<path d="M186.914 141C218.187 141 241.785 169.385 236.073 200.132L221.451 278.848C219.167 291.146 228.605 302.5 241.114 302.5H301.246C310.883 302.5 319.15 295.627 320.91 286.152L338.246 192.826C339.388 186.677 334.669 181 328.414 181H313.55C307.634 181 303.011 175.892 303.6 170.005L305.6 150.005C306.111 144.893 310.412 141 315.55 141H328.414C359.687 141 383.285 169.385 377.573 200.132L360.237 293.458C357.837 306.379 351.402 317.685 342.383 326.176C337.273 319.389 329.149 315 320 315C304.703 315 292.273 327.267 292.006 342.5H241.114C240.066 342.5 239.025 342.471 237.992 342.419C237.683 327.223 225.27 315 210 315C204.134 315 198.689 316.805 194.19 319.889C183.808 306.864 178.781 289.541 182.124 271.542L196.746 192.826C197.888 186.677 193.169 181 186.914 181H164C147.431 181 134 167.569 134 151V141H186.914Z" fill="#2777DF"/>
<path d="M210 319C223.255 319 234 329.745 234 343C234 356.255 223.255 367 210 367C196.745 367 186 356.255 186 343C186 329.745 196.745 319 210 319ZM210 334.111C205.091 334.111 201.111 338.091 201.111 343C201.111 347.909 205.091 351.889 210 351.889C214.909 351.889 218.889 347.909 218.889 343C218.889 338.091 214.909 334.111 210 334.111Z" fill="#2777DF"/>
<path d="M320 319C333.255 319 344 329.745 344 343C344 356.255 333.255 367 320 367C306.745 367 296 356.255 296 343C296 329.745 306.745 319 320 319ZM320 334.111C315.091 334.111 311.111 338.091 311.111 343C311.111 347.909 315.091 351.889 320 351.889C324.909 351.889 328.889 347.909 328.889 343C328.889 338.091 324.909 334.111 320 334.111Z" fill="#2777DF"/>
</svg>
