<svg width="66" height="66" viewBox="0 0 66 66" fill="none" xmlns="http://www.w3.org/2000/svg">
<circle cx="33" cy="33" r="33" fill="white"/>
<path d="M26.9502 41.3037C28.6853 41.3039 30.0918 42.7102 30.0918 44.4453C30.0918 46.1805 28.6853 47.5877 26.9502 47.5879C25.2149 47.5879 23.8076 46.1806 23.8076 44.4453C23.8077 42.71 25.2149 41.3037 26.9502 41.3037ZM41.3506 41.3037C43.0859 41.3037 44.4931 42.71 44.4932 44.4453C44.4932 46.1806 43.0859 47.5879 41.3506 47.5879C39.6153 47.5878 38.209 46.1806 38.209 44.4453C38.209 42.7101 39.6154 41.3038 41.3506 41.3037ZM26.9502 43.2812C26.3075 43.2812 25.7862 43.8027 25.7861 44.4453C25.7861 45.088 26.3075 45.6094 26.9502 45.6094C27.5927 45.6091 28.1133 45.0878 28.1133 44.4453C28.1132 43.8028 27.5926 43.2815 26.9502 43.2812ZM41.3506 43.2812C40.708 43.2813 40.1866 43.8027 40.1865 44.4453C40.1865 45.0879 40.708 45.6093 41.3506 45.6094C41.9933 45.6094 42.5146 45.088 42.5146 44.4453C42.5146 43.8027 41.9932 43.2812 41.3506 43.2812ZM23.9277 18C28.0217 18.0002 31.1109 21.7161 30.3633 25.7412L28.4492 36.0469C28.1502 37.6569 29.3858 39.1436 31.0234 39.1436H38.8955C40.1571 39.1435 41.2393 38.2434 41.4697 37.0029L43.7393 24.7852C43.8888 23.9801 43.271 23.2363 42.4521 23.2363H40.5059C39.7316 23.2361 39.127 22.5674 39.2041 21.7969L39.4658 19.1787C39.5328 18.5096 40.096 18 40.7686 18H42.4521C46.5463 18 49.6354 21.7159 48.8877 25.7412L46.6182 37.959C46.304 39.6506 45.462 41.1315 44.2812 42.2432C43.6123 41.3546 42.5484 40.7793 41.3506 40.7793C39.348 40.7794 37.7205 42.3857 37.6855 44.3799H31.0234C30.8862 44.3799 30.7495 44.3759 30.6143 44.3691C30.5737 42.3799 28.949 40.7795 26.9502 40.7793C26.1822 40.7793 25.4689 41.0162 24.8799 41.4199C23.5207 39.7147 22.8621 37.4462 23.2998 35.0898L25.2148 24.7852C25.3643 23.9803 24.7465 23.2365 23.9277 23.2363H20.9277C18.7587 23.2363 17.0002 21.4786 17 19.3096V18H23.9277Z" fill="#1D61E6"/>
</svg>
